# xmcd
#
# Track frame offsets:
#	150
#	7398
#	26131
#	44117
#	67247
#	86158
#	104243
#	120864
#	139576
#	158381
#	176722
#
# Disc length: 2591 seconds
#
# Revision: 1
# Processed by: cddbd v1.5.2PL0 Copyright (c) Steve Scherf et al.
# Submitted via: EasyCDDAExtractor 5.0.6
#
DISCID=9f0a1d0b
DTITLE=Various Artist - 1집 - 지금 여기서
DYEAR=2006
DGENRE=Roots Rock
TTITLE0=Intro (Stay With Me)
TTITLE1=레이 강(Ray Kang) - 지금 여기서
TTITLE2=넌 어디에
TTITLE3=Come
TTITLE4=Wasting Time
TTITLE5=그대여 안녕히 (It’s Alright)
TTITLE6=Almost
TTITLE7=Your Way
TTITLE8=흑심
TTITLE9=도와주오
TTITLE10=Here I Am
EXTD=
EXTT0=
EXTT1=
EXTT2=
EXTT3=
EXTT4=
EXTT5=
EXTT6=
EXTT7=
EXTT8=
EXTT9=
EXTT10=
PLAYORDER=
